<svg width="14" height="19" viewBox="0 0 14 19" fill="none" xmlns="http://www.w3.org/2000/svg">
<g clip-path="url(#clip0_4_291)">
<g clip-path="url(#clip1_4_291)">
<path d="M8.35742 1.375C4.01562 1.375 0.5 4.90117 0.5 9.25C0.5 13.5988 4.01562 17.125 8.35742 17.125C10.4879 17.125 12.418 16.2742 13.8348 14.8961C14.0105 14.7238 14.0562 14.4566 13.9437 14.2387C13.8313 14.0207 13.5887 13.8977 13.3461 13.9398C13.0016 13.9996 12.65 14.0312 12.2879 14.0312C8.88125 14.0312 6.11797 11.2609 6.11797 7.84375C6.11797 5.53047 7.38359 3.51602 9.25742 2.4543C9.47188 2.33125 9.58086 2.08516 9.52812 1.84609C9.47539 1.60703 9.27148 1.42773 9.02539 1.40664C8.80391 1.38906 8.58242 1.37852 8.35742 1.37852V1.375Z" fill="#6B7280"/>
</g>
</g>
<defs>
<clipPath id="clip0_4_291">
<rect width="13.5" height="18" fill="white" transform="translate(0.5 0.25)"/>
</clipPath>
<clipPath id="clip1_4_291">
<path d="M0.5 0.25H14V18.25H0.5V0.25Z" fill="white"/>
</clipPath>
</defs>
</svg>
